<?xml version="1.0" encoding="UTF-8" standalone="no"?>
<!-- Created with Inkscape (http://www.inkscape.org/) -->

<svg
   width="210mm"
   height="297mm"
   viewBox="0 0 210 297"
   version="1.1"
   id="svg5"
   inkscape:version="1.1.1 (3bf5ae0d25, 2021-09-20)"
   sodipodi:docname="Headphones.svg"
   xmlns:inkscape="http://www.inkscape.org/namespaces/inkscape"
   xmlns:sodipodi="http://sodipodi.sourceforge.net/DTD/sodipodi-0.dtd"
   xmlns="http://www.w3.org/2000/svg"
   xmlns:svg="http://www.w3.org/2000/svg">
  <sodipodi:namedview
     id="namedview7"
     pagecolor="#505050"
     bordercolor="#ffffff"
     borderopacity="1"
     inkscape:pageshadow="0"
     inkscape:pageopacity="0"
     inkscape:pagecheckerboard="1"
     inkscape:document-units="px"
     showgrid="false"
     inkscape:snap-smooth-nodes="false"
     showguides="true"
     inkscape:guide-bbox="true"
     showborder="false"
     inkscape:snap-intersection-paths="false"
     inkscape:object-paths="false"
     inkscape:snap-bbox="false"
     inkscape:bbox-paths="true"
     inkscape:bbox-nodes="true"
     inkscape:zoom="0.35355339"
     inkscape:cx="-28.284271"
     inkscape:cy="73.539105"
     inkscape:window-width="1364"
     inkscape:window-height="746"
     inkscape:window-x="0"
     inkscape:window-y="20"
     inkscape:window-maximized="1"
     inkscape:current-layer="path846"
     inkscape:object-nodes="false"
     inkscape:snap-midpoints="false"
     inkscape:snap-global="true"
     inkscape:snap-center="true"
     inkscape:snap-bbox-midpoints="false"
     inkscape:snap-bbox-edge-midpoints="false"
     inkscape:snap-nodes="false" />
  <defs
     id="defs2" />
  <g
     inkscape:label="Layer 1"
     inkscape:groupmode="layer"
     id="layer1">
    <g
       id="path846"
       transform="scale(0.26458333)">
      <rect
         style="opacity:1;fill:#000000;stroke:none;stroke-width:222.251;stroke-linecap:square;stroke-linejoin:miter;stroke-miterlimit:4;stroke-dasharray:none;paint-order:normal"
         id="rect8322"
         width="1920"
         height="1080"
         x="-953.44519"
         y="-367.18353"
         inkscape:export-filename="/home/franci/.wallpapers/Headphones.png"
         inkscape:export-xdpi="68.300003"
         inkscape:export-ydpi="68.300003" />
      <g
         id="g8409"
         transform="matrix(1.3821027,0,0,1.3821027,129.69424,-1.336569)">
        <path
           id="path4493"
           style="color:#000000;fill:#ffffff;stroke-linecap:square;-inkscape-stroke:none"
           d="m -89.095703,-38.550781 c -92.969597,0 -168.658207,75.688623 -168.658207,168.658201 v 62.32031 83.13477 a 15,15 0 0 0 15,15 h 23.09961 a 15,15 0 0 0 15,-15 v -68.13672 a 15,15 0 0 0 -15,-15 h -8.09961 v -62.31836 c 0,-76.756391 61.90179,-138.6582012 138.658207,-138.6582012 76.756406,3e-7 138.658204,61.9018102 138.658203,138.6582012 v 62.31836 h -8.099609 a 15,15 0 0 0 -15,15 v 68.13672 a 15,15 0 0 0 15,15 H 64.5625 a 15,15 0 0 0 15,-15 V 192.42773 130.10742 C 79.562502,37.137842 3.8738871,-38.55078 -89.095703,-38.550781 Z M 43.789062,192.60938 a 15,15 0 0 1 0.04883,0.01 15,15 0 0 0 -0.04883,-0.01 z m 2.25586,0.5371 a 15,15 0 0 1 0.109375,0.0371 15,15 0 0 0 -0.109375,-0.0371 z m -271.267582,0.38868 a 15,15 0 0 0 -0.27343,0.10156 15,15 0 0 1 0.27343,-0.10156 z m 273.439457,0.50195 a 15,15 0 0 1 0.105469,0.0527 15,15 0 0 0 -0.105469,-0.0527 z m 2.041015,1.24023 a 15,15 0 0 1 0.03516,0.0254 15,15 0 0 0 -0.03516,-0.0254 z m -280.349612,1.42774 a 15,15 0 0 0 -0.2832,0.2832 15,15 0 0 1 0.2832,-0.2832 z m 283.677738,1.89062 a 15,15 0 0 1 0.02539,0.0352 15,15 0 0 0 -0.02539,-0.0352 z m 1.21289,1.97071 a 15,15 0 0 1 0.05273,0.10547 15,15 0 0 0 -0.05273,-0.10547 z m -288.242188,1.01757 a 15,15 0 0 0 -0.10156,0.27344 15,15 0 0 1 0.10156,-0.27344 z m 289.148438,1.1504 a 15,15 0 0 1 0.03711,0.10937 15,15 0 0 0 -0.03711,-0.10937 z m 0.564453,2.3164 a 15,15 0 0 1 0.0098,0.0488 15,15 0 0 0 -0.0098,-0.0488 z m -289.814451,7.94336 a 15,15 0 0 0 0.10156,0.27344 15,15 0 0 1 -0.10156,-0.27344 z m 27.78125,0 a 15,15 0 0 1 -0.10156,0.27344 15,15 0 0 0 0.10156,-0.27344 z m 233.335936,0 a 15,15 0 0 0 0.101562,0.27344 15,15 0 0 1 -0.101562,-0.27344 z m 27.78125,0 a 15,15 0 0 1 -0.101563,0.27344 15,15 0 0 0 0.101563,-0.27344 z M -230.375,217.86328 a 15,15 0 0 0 0.2832,0.2832 15,15 0 0 1 -0.2832,-0.2832 z m 21.44141,0 a 15,15 0 0 1 -0.28321,0.2832 15,15 0 0 0 0.28321,-0.2832 z m 239.675778,0 a 15,15 0 0 0 0.283203,0.2832 15,15 0 0 1 -0.283203,-0.2832 z m 21.441406,0 a 15,15 0 0 1 -0.283203,0.2832 15,15 0 0 0 0.283203,-0.2832 z m -277.679684,3.35156 a 15,15 0 0 0 0.27343,0.10157 15,15 0 0 1 -0.27343,-0.10157 z m 11.68359,0 a 15,15 0 0 1 -0.27344,0.10157 15,15 0 0 0 0.27344,-0.10157 z m 249.433594,0 a 15,15 0 0 0 0.273437,0.10157 15,15 0 0 1 -0.273437,-0.10157 z m 11.683594,0 a 15,15 0 0 1 -0.273438,0.10157 15,15 0 0 0 0.273438,-0.10157 z m -264.632808,39.53125 a 15,15 0 0 1 0.0488,0.01 15,15 0 0 0 -0.0488,-0.01 z m 261.117182,0 a 15,15 0 0 1 0.04883,0.01 15,15 0 0 0 -0.04883,-0.01 z m -258.861332,0.53711 a 15,15 0 0 1 0.10938,0.0371 15,15 0 0 0 -0.10938,-0.0371 z m 261.117192,0 a 15,15 0 0 1 0.109375,0.0371 15,15 0 0 0 -0.109375,-0.0371 z m -271.267582,0.38868 a 15,15 0 0 0 -0.27343,0.10156 15,15 0 0 1 0.27343,-0.10156 z m 261.117191,0 a 15,15 0 0 0 -0.273437,0.10156 15,15 0 0 1 0.273437,-0.10156 z m -248.794921,0.50195 a 15,15 0 0 1 0.10547,0.0527 15,15 0 0 0 -0.10547,-0.0527 z m 261.117187,0 a 15,15 0 0 1 0.105469,0.0527 15,15 0 0 0 -0.105469,-0.0527 z m -259.076177,1.24023 a 15,15 0 0 1 0.0352,0.0254 15,15 0 0 0 -0.0352,-0.0254 z m 261.117192,0 a 15,15 0 0 1 0.03516,0.0254 15,15 0 0 0 -0.03516,-0.0254 z M -230.0918,264.8418 a 15,15 0 0 0 -0.2832,0.2832 15,15 0 0 1 0.2832,-0.2832 z m 261.117191,0 a 15,15 0 0 0 -0.283203,0.2832 15,15 0 0 1 0.283203,-0.2832 z m -238.556641,1.89062 a 15,15 0 0 1 0.0254,0.0352 15,15 0 0 0 -0.0254,-0.0352 z m 261.117188,0 a 15,15 0 0 1 0.02539,0.0352 15,15 0 0 0 -0.02539,-0.0352 z m -259.904298,1.9707 a 15,15 0 0 1 0.0527,0.10547 15,15 0 0 0 -0.0527,-0.10547 z m 261.117188,0 a 15,15 0 0 1 0.05273,0.10547 15,15 0 0 0 -0.05273,-0.10547 z m -288.242188,1.01758 a 15,15 0 0 0 -0.10156,0.27344 15,15 0 0 1 0.10156,-0.27344 z m 261.117188,0 a 15,15 0 0 0 -0.101562,0.27344 15,15 0 0 1 0.101562,-0.27344 z m -233.085938,1.15039 a 15,15 0 0 1 0.0371,0.10938 15,15 0 0 0 -0.0371,-0.10938 z m 261.117188,0 a 15,15 0 0 1 0.03711,0.10938 15,15 0 0 0 -0.03711,-0.10938 z m -260.552738,2.31641 a 15,15 0 0 1 0.01,0.0488 15,15 0 0 0 -0.01,-0.0488 z m 261.117191,0 a 15,15 0 0 1 0.0098,0.0488 15,15 0 0 0 -0.0098,-0.0488 z m -289.814451,7.94336 a 15,15 0 0 0 0.10156,0.27344 15,15 0 0 1 -0.10156,-0.27344 z m 288.898436,0 a 15,15 0 0 1 -0.101563,0.27344 15,15 0 0 0 0.101563,-0.27344 z M -230.375,286 a 15,15 0 0 0 0.2832,0.2832 A 15,15 0 0 1 -230.375,286 Z m 282.558594,0 A 15,15 0 0 1 51.900391,286.2832 15,15 0 0 0 52.183594,286 Z m -277.679684,3.35156 a 15,15 0 0 0 0.27343,0.10156 15,15 0 0 1 -0.27343,-0.10156 z m 272.800778,0 a 15,15 0 0 1 -0.273438,0.10156 15,15 0 0 0 0.273438,-0.10156 z" />
        <path
           id="path6878"
           style="fill:none;stroke:#ffffff;stroke-width:7;stroke-linecap:butt;stroke-linejoin:miter;stroke-miterlimit:4;stroke-dasharray:none;stroke-opacity:1"
           d="m -165.7832,280.36523 a 55.112331,55.112331 0 0 0 2.77929,-2.77929 55.112331,55.112331 0 0 0 4.71289,-6.29492 55.112331,55.112331 0 0 0 3.76954,-6.90235 55.112331,55.112331 0 0 0 2.74804,-7.36719 55.112331,55.112331 0 0 0 1.66992,-7.68359 55.112331,55.112331 0 0 0 0.5625,-7.84375 55.112331,55.112331 0 0 0 -0.0625,-2.62305 55.112331,55.112331 0 0 0 -0.1875,-2.61523 55.112331,55.112331 0 0 0 -0.3125,-2.60547 55.112331,55.112331 0 0 0 -0.43359,-2.58594 55.112331,55.112331 0 0 0 -0.55859,-2.56445 55.112331,55.112331 0 0 0 -0.67774,-2.5332 55.112331,55.112331 0 0 0 -0.79883,-2.49805 55.112331,55.112331 0 0 0 -0.91796,-2.45703 55.112331,55.112331 0 0 0 -1.03125,-2.41211 55.112331,55.112331 0 0 0 -1.14649,-2.35938 55.112331,55.112331 0 0 0 -1.25781,-2.30273 55.112331,55.112331 0 0 0 -1.36524,-2.24023 55.112331,55.112331 0 0 0 -1.4707,-2.17188 55.112331,55.112331 0 0 0 -1.57226,-2.09961 55.112331,55.112331 0 0 0 -1.66993,-2.02344 55.112331,55.112331 0 0 0 -1.76367,-1.93945 55.112331,55.112331 0 0 0 -0.92773,-0.92773 l -23.34375,23.34375 a 22.099609,22.099609 0 0 1 6.48437,15.61523 22.099609,22.099609 0 0 1 -6.57031,15.5293 z" />
        <path
           id="path7202"
           style="fill:none;stroke:#ffffff;stroke-width:7;stroke-linecap:butt;stroke-linejoin:miter;stroke-miterlimit:4;stroke-dasharray:none;stroke-opacity:1"
           d="m -150.98047,295.16797 7.85352,7.85351 a 87.23434,87.23434 0 0 0 25.70703,-61.52734 87.23434,87.23434 0 0 0 -25.55078,-61.68359 l -8.00977,8.00976 a 75.906874,75.906874 0 0 1 2.06641,2.14844 75.906874,75.906874 0 0 1 1.98047,2.22852 75.906874,75.906874 0 0 1 1.89062,2.30273 75.906874,75.906874 0 0 1 1.79883,2.37695 75.906874,75.906874 0 0 1 1.70508,2.44532 75.906874,75.906874 0 0 1 1.60547,2.50976 75.906874,75.906874 0 0 1 1.50781,2.57227 75.906874,75.906874 0 0 1 1.4043,2.6289 75.906874,75.906874 0 0 1 1.30078,2.68164 75.906874,75.906874 0 0 1 1.19531,2.73047 75.906874,75.906874 0 0 1 1.08594,2.77539 75.906874,75.906874 0 0 1 0.97656,2.81641 75.906874,75.906874 0 0 1 0.86523,2.85351 75.906874,75.906874 0 0 1 0.75196,2.88282 75.906874,75.906874 0 0 1 0.64062,2.91211 75.906874,75.906874 0 0 1 0.52344,2.93359 75.906874,75.906874 0 0 1 0.4082,2.95313 75.906874,75.906874 0 0 1 0.29297,2.96679 75.906874,75.906874 0 0 1 0.17383,2.97461 75.906874,75.906874 0 0 1 0.0586,2.98047 75.906874,75.906874 0 0 1 -0.47656,8.49805 75.906874,75.906874 0 0 1 -1.42578,8.39258 75.906874,75.906874 0 0 1 -2.35742,8.17968 75.906874,75.906874 0 0 1 -3.25586,7.86524 75.906874,75.906874 0 0 1 -4.11914,7.44922 75.906874,75.906874 0 0 1 -4.92578,6.94336 75.906874,75.906874 0 0 1 -5.67188,6.3457 z" />
        <path
           id="path7430"
           style="fill:none;stroke:#ffffff;stroke-width:7;stroke-linecap:butt;stroke-linejoin:miter;stroke-miterlimit:4;stroke-dasharray:none;stroke-opacity:1"
           d="m -12.4082,280.36568 a 55.112331,55.112331 0 0 1 -2.77929,-2.77929 55.112331,55.112331 0 0 1 -4.71289,-6.29492 55.112331,55.112331 0 0 1 -3.76954,-6.90235 55.112331,55.112331 0 0 1 -2.74804,-7.36719 55.112331,55.112331 0 0 1 -1.66992,-7.68359 55.112331,55.112331 0 0 1 -0.5625,-7.84375 55.112331,55.112331 0 0 1 0.0625,-2.62305 55.112331,55.112331 0 0 1 0.1875,-2.61523 55.112331,55.112331 0 0 1 0.3125,-2.60547 55.112331,55.112331 0 0 1 0.43359,-2.58594 55.112331,55.112331 0 0 1 0.55859,-2.56445 55.112331,55.112331 0 0 1 0.67774,-2.5332 55.112331,55.112331 0 0 1 0.79883,-2.49805 55.112331,55.112331 0 0 1 0.91796,-2.45703 55.112331,55.112331 0 0 1 1.03125,-2.41211 55.112331,55.112331 0 0 1 1.14649,-2.35938 55.112331,55.112331 0 0 1 1.25781,-2.30273 55.112331,55.112331 0 0 1 1.36524,-2.24023 55.112331,55.112331 0 0 1 1.4707,-2.17188 55.112331,55.112331 0 0 1 1.57226,-2.09961 55.112331,55.112331 0 0 1 1.66993,-2.02344 55.112331,55.112331 0 0 1 1.76367,-1.93945 55.112331,55.112331 0 0 1 0.92773,-0.92773 l 23.34375,23.34375 a 22.099609,22.099609 0 0 0 -6.48437,15.61523 22.099609,22.099609 0 0 0 6.57031,15.5293 z" />
        <path
           id="path7432"
           style="fill:none;stroke:#ffffff;stroke-width:7;stroke-linecap:butt;stroke-linejoin:miter;stroke-miterlimit:4;stroke-dasharray:none;stroke-opacity:1"
           d="m -27.21093,295.16842 -7.85352,7.85351 A 87.23434,87.23434 0 0 1 -60.77148,241.49459 87.23434,87.23434 0 0 1 -35.2207,179.811 l 8.00977,8.00976 a 75.906874,75.906874 0 0 0 -2.06641,2.14844 75.906874,75.906874 0 0 0 -1.98047,2.22852 75.906874,75.906874 0 0 0 -1.89062,2.30273 75.906874,75.906874 0 0 0 -1.79883,2.37695 75.906874,75.906874 0 0 0 -1.70508,2.44532 75.906874,75.906874 0 0 0 -1.60547,2.50976 75.906874,75.906874 0 0 0 -1.50781,2.57227 75.906874,75.906874 0 0 0 -1.4043,2.6289 75.906874,75.906874 0 0 0 -1.30078,2.68164 75.906874,75.906874 0 0 0 -1.19531,2.73047 75.906874,75.906874 0 0 0 -1.08594,2.77539 75.906874,75.906874 0 0 0 -0.97656,2.81641 75.906874,75.906874 0 0 0 -0.86523,2.85351 75.906874,75.906874 0 0 0 -0.75196,2.88282 75.906874,75.906874 0 0 0 -0.64062,2.91211 75.906874,75.906874 0 0 0 -0.52344,2.93359 75.906874,75.906874 0 0 0 -0.4082,2.95313 75.906874,75.906874 0 0 0 -0.29297,2.96679 75.906874,75.906874 0 0 0 -0.17383,2.97461 75.906874,75.906874 0 0 0 -0.0586,2.98047 75.906874,75.906874 0 0 0 0.47656,8.49805 75.906874,75.906874 0 0 0 1.42578,8.39258 75.906874,75.906874 0 0 0 2.35742,8.17968 75.906874,75.906874 0 0 0 3.25586,7.86524 75.906874,75.906874 0 0 0 4.11914,7.44922 75.906874,75.906874 0 0 0 4.92578,6.94336 75.906874,75.906874 0 0 0 5.67188,6.3457 z" />
      </g>
    </g>
  </g>
</svg>
