<?xml version="1.0" encoding="UTF-8" standalone="no"?>
<!-- Created with Inkscape (http://www.inkscape.org/) -->

<svg
   width="210mm"
   height="297mm"
   viewBox="0 0 210 297"
   version="1.1"
   id="svg5"
   sodipodi:docname="RetroPC.svg"
   inkscape:version="1.1.1 (3bf5ae0d25, 2021-09-20)"
   xmlns:inkscape="http://www.inkscape.org/namespaces/inkscape"
   xmlns:sodipodi="http://sodipodi.sourceforge.net/DTD/sodipodi-0.dtd"
   xmlns="http://www.w3.org/2000/svg"
   xmlns:svg="http://www.w3.org/2000/svg">
  <sodipodi:namedview
     id="namedview7"
     pagecolor="#505050"
     bordercolor="#ffffff"
     borderopacity="1"
     inkscape:pageshadow="0"
     inkscape:pageopacity="0"
     inkscape:pagecheckerboard="1"
     inkscape:document-units="px"
     showgrid="false"
     showborder="false"
     showguides="true"
     inkscape:guide-bbox="true"
     inkscape:zoom="0.16"
     inkscape:cx="40.625"
     inkscape:cy="-856.25"
     inkscape:window-width="1364"
     inkscape:window-height="726"
     inkscape:window-x="0"
     inkscape:window-y="20"
     inkscape:window-maximized="1"
     inkscape:current-layer="layer1"
     inkscape:snap-intersection-paths="false"
     inkscape:snap-bbox="false"
     inkscape:bbox-paths="true"
     inkscape:bbox-nodes="true"
     inkscape:snap-bbox-edge-midpoints="false"
     inkscape:snap-bbox-midpoints="false"
     inkscape:object-nodes="true"
     inkscape:snap-others="false"
     inkscape:object-paths="true"
     inkscape:snap-smooth-nodes="false"
     inkscape:snap-midpoints="false"
     inkscape:snap-global="false" />
  <defs
     id="defs2" />
  <g
     inkscape:label="Layer 1"
     inkscape:groupmode="layer"
     id="layer1">
    <rect
       style="opacity:1;fill:#000000;fill-opacity:1;stroke:none;stroke-width:1.5875;stroke-linecap:round;stroke-miterlimit:4;stroke-dasharray:none;stroke-opacity:1"
       id="rect95266"
       width="508"
       height="285.75"
       x="109.41324"
       y="-421.27927"
       inkscape:export-filename="/home/franci/.wallpapers/RetroPC.png"
       inkscape:export-xdpi="68.300003"
       inkscape:export-ydpi="68.300003" />
    <circle
       style="opacity:1;fill:#00ff00;fill-opacity:1;stroke:none;stroke-width:0.291326"
       id="path5855"
       cx="320.76257"
       cy="-256.75357"
       rx="2.8558671"
       ry="3.4623673" />
    <circle
       style="fill:#00ff00;fill-opacity:1;stroke:none;stroke-width:0.291326"
       id="path5855-6"
       cx="313.94946"
       cy="-250.79926"
       r="0" />
    <circle
       style="fill:#00ff00;stroke-width:1.68791;stroke-linecap:round"
       id="circle966"
       cx="317.67874"
       cy="-297.83627"
       rx="2.5769644"
       ry="2.8489928"
       transform="matrix(0.98890677,0.14853752,0,1,0,0)" />
    <circle
       style="fill:#ff0000;stroke-width:1.68791;stroke-linecap:round;stroke:none"
       id="circle1140"
       cx="317.67874"
       cy="-297.83627"
       rx="2.5769644"
       ry="2.8489928"
       transform="matrix(0.98890677,0.14853752,0,1,0,0)" />
    <path
       style="fill:#4b4b4b;fill-opacity:1;stroke:none;stroke-width:0.250509px;stroke-linecap:butt;stroke-linejoin:miter;stroke-opacity:1"
       d="m 320.41956,-376.6981 v 15.83081 l 5.78072,-3.3375 4.16019,2.40189 16.61602,-8.09188 z"
       id="path2961"
       sodipodi:nodetypes="cccccc" />
    <path
       style="fill:#5e5e5e;fill-opacity:1;stroke:none;stroke-width:0.250509px;stroke-linecap:butt;stroke-linejoin:miter;stroke-opacity:1"
       d="m 276.26863,-351.20756 v 86.51182 c 0,0 -0.55686,18.13132 16.47891,27.96693 l 48.68476,28.10816 2.03469,-15.83014 1.64549,-79.52924 -3.67999,-9.60515 -51.84479,-37.81294 z"
       id="path4280"
       sodipodi:nodetypes="ccscccccc" />
    <path
       style="fill:#717171;fill-opacity:1;stroke:none;stroke-width:0.250509px;stroke-linecap:butt;stroke-linejoin:miter;stroke-opacity:1"
       d="m 276.26863,-351.20756 65.16386,37.62238 9.25238,-0.66811 50.3739,-30.28916 6.85702,-7.4269 -65.16385,-37.62237 -22.33238,12.89362 17.87008,10.31731 -20.84348,12.03396 -17.87009,-10.31729 z"
       id="path1262"
       sodipodi:nodetypes="ccccccccccc" />
    <path
       style="fill:none;stroke:#717171;stroke-width:1.50306;stroke-linecap:butt;stroke-linejoin:miter;stroke-miterlimit:4;stroke-dasharray:none;stroke-opacity:1"
       d="m 406.63818,-277.85276 8.50756,40.68219 c 0,0 0.7021,3.78208 1.71555,5.53743 1.01347,1.75536 3.40505,3.33168 3.40505,3.33168 l 17.59499,10.15848"
       id="path3637"
       sodipodi:nodetypes="cczcc" />
    <path
       style="fill:#000000;stroke:none;stroke-width:0.250509px;stroke-linecap:butt;stroke-linejoin:miter;stroke-opacity:1"
       d="m 346.65861,-251.70704 51.40646,-28.61118 0.0808,-60.56455 -52.85526,30.24182 z"
       id="path6170"
       sodipodi:nodetypes="ccccc" />
    <path
       style="fill:#989898;fill-opacity:1;stroke:none;stroke-width:0.250509px;stroke-linecap:butt;stroke-linejoin:miter;stroke-opacity:1"
       d="m 348.08259,-254.28452 47.41802,-27.37683 v -60.09089 l 8.03447,-2.42076 0.0614,68.39695 -55.46785,33.5055 -3.76742,-6.52312 z"
       id="path474"
       sodipodi:nodetypes="cccccccc" />
    <path
       style="fill:#3a3939;fill-opacity:1;stroke:none;stroke-width:0.250509px;stroke-linecap:butt;stroke-linejoin:miter;stroke-opacity:1"
       d="m 346.23442,-226.71167 1.25503,5.61793 49.61572,-28.09512 -1.09747,-7.33791 z"
       id="path12277"
       sodipodi:nodetypes="ccccc" />
    <path
       id="path1363"
       style="fill:#848484;fill-opacity:1;stroke:none;stroke-width:0.250509px;stroke-linecap:butt;stroke-linejoin:miter;stroke-opacity:1"
       d="m 407.91594,-351.96938 -66.48364,38.38436 v 104.96437 l 66.48364,-38.38437 z m -6.10132,11.20202 v 64.55881 l -53.73203,31.02218 v -64.55929 z m -5.99608,86.83809 v 2.5046 l -47.73595,27.56055 v -2.5046 z" />
    <path
       id="path884"
       style="fill:#4b4b4b;fill-opacity:1;stroke-width:1.58924;stroke-linecap:round"
       d="m 307.26935,-258.15655 a 2.7919742,2.3311513 66.100544 0 1 -2.41283,2.33503 2.7919742,2.3311513 66.100544 0 1 -2.41285,-3.05987 2.7919742,2.3311513 66.100544 0 1 2.41285,-2.33505 2.7919742,2.3311513 66.100544 0 1 2.41283,3.05989 z" />
    <path
       style="fill:#989898;fill-opacity:1;stroke:none;stroke-width:0.250509px;stroke-linecap:butt;stroke-linejoin:miter;stroke-opacity:1"
       d="m 380.91726,-174.85245 43.43828,-25.22895 4.89373,-0.15405 v 4.37007 l -47.70297,27.54133 z"
       id="path2821"
       sodipodi:nodetypes="cccccc" />
    <path
       style="fill:#717171;fill-opacity:1;stroke:none;stroke-width:0.250509px;stroke-linecap:butt;stroke-linejoin:miter;stroke-opacity:1"
       d="m 357.85692,-186.37124 v 7.88667 l 23.68941,10.16052 v -5.79563 l -20.86887,-12.70061 z"
       id="path1905"
       sodipodi:nodetypes="cccccc" />
    <path
       id="path1161"
       style="fill:#4b4b4b;fill-opacity:1;stroke-width:0.956459;stroke-linecap:round"
       d="m 362.66223,-180.91669 a 1.6803058,1.4029668 66.100544 0 1 -1.45214,1.40531 1.6803058,1.4029668 66.100544 0 1 -1.45211,-1.84154 1.6803058,1.4029668 66.100544 0 1 1.45211,-1.4053 1.6803058,1.4029668 66.100544 0 1 1.45214,1.84153 z" />
    <path
       style="fill:#848484;fill-opacity:1;stroke:none;stroke-width:0.250509px;stroke-linecap:butt;stroke-linejoin:miter;stroke-opacity:1"
       d="m 357.85692,-186.37124 47.70293,-27.54131 23.68942,13.6771 -47.70294,27.54131 z"
       id="path3002" />
    <path
       style="fill:#727070;fill-opacity:1;stroke:none;stroke-width:0.250509px;stroke-linecap:butt;stroke-linejoin:miter;stroke-opacity:1"
       d="m 362.63807,-186.16109 v -0.88098 l 3.71778,2.14646 v 0.88098 z"
       id="path3395" />
    <path
       style="fill:#989898;fill-opacity:1;stroke:none;stroke-width:0.250509px;stroke-linecap:butt;stroke-linejoin:miter;stroke-opacity:1"
       d="m 366.35585,-184.89561 3.72341,-2.14971 v 0.88096 l -3.72343,2.14971 z"
       id="path3463" />
    <path
       style="fill:#cfcfcf;fill-opacity:1;stroke:none;stroke-width:0.250509px;stroke-linecap:butt;stroke-linejoin:miter;stroke-opacity:1"
       d="m 362.63807,-187.04207 3.72341,-2.14971 3.71778,2.14646 -3.72341,2.14971 z"
       id="path1386" />
    <path
       style="fill:#727070;fill-opacity:1;stroke:none;stroke-width:0.250509px;stroke-linecap:butt;stroke-linejoin:miter;stroke-opacity:1"
       d="m 368.31962,-189.44134 v -0.88098 l 3.71778,2.14646 v 0.88097 z"
       id="path1654" />
    <path
       style="fill:#989898;fill-opacity:1;stroke:none;stroke-width:0.250509px;stroke-linecap:butt;stroke-linejoin:miter;stroke-opacity:1"
       d="m 372.0374,-188.17586 3.72341,-2.14972 v 0.88097 l -3.72343,2.14972 z"
       id="path1656" />
    <path
       style="fill:#cfcfcf;fill-opacity:1;stroke:none;stroke-width:0.250509px;stroke-linecap:butt;stroke-linejoin:miter;stroke-opacity:1"
       d="m 368.31962,-190.32232 3.72342,-2.14971 3.71777,2.14645 -3.72341,2.14972 z"
       id="path1658" />
    <path
       style="fill:#727070;fill-opacity:1;stroke:none;stroke-width:0.250509px;stroke-linecap:butt;stroke-linejoin:miter;stroke-opacity:1"
       d="m 374.00116,-192.7216 v -0.88098 l 3.71778,2.14646 v 0.88098 z"
       id="path1670" />
    <path
       style="fill:#989898;fill-opacity:1;stroke:none;stroke-width:0.250509px;stroke-linecap:butt;stroke-linejoin:miter;stroke-opacity:1"
       d="m 377.71894,-191.45612 3.72341,-2.14971 v 0.88096 l -3.72341,2.14973 z"
       id="path1672" />
    <path
       style="fill:#cfcfcf;fill-opacity:1;stroke:none;stroke-width:0.250509px;stroke-linecap:butt;stroke-linejoin:miter;stroke-opacity:1"
       d="m 374.00116,-193.60258 3.72343,-2.14971 3.71776,2.14646 -3.72341,2.14971 z"
       id="path1674" />
    <path
       style="fill:#727070;fill-opacity:1;stroke:none;stroke-width:0.250509px;stroke-linecap:butt;stroke-linejoin:miter;stroke-opacity:1"
       d="m 379.68271,-196.00186 v -0.88098 l 3.71778,2.14646 v 0.88098 z"
       id="path1766" />
    <path
       style="fill:#989898;fill-opacity:1;stroke:none;stroke-width:0.250509px;stroke-linecap:butt;stroke-linejoin:miter;stroke-opacity:1"
       d="m 383.40049,-194.73638 3.72341,-2.14971 v 0.88096 l -3.72341,2.14973 z"
       id="path1768" />
    <path
       style="fill:#cfcfcf;fill-opacity:1;stroke:none;stroke-width:0.250509px;stroke-linecap:butt;stroke-linejoin:miter;stroke-opacity:1"
       d="m 379.68271,-196.88284 3.72343,-2.14971 3.71776,2.14646 -3.72341,2.14971 z"
       id="path1770" />
    <path
       style="fill:#727070;fill-opacity:1;stroke:none;stroke-width:0.250509px;stroke-linecap:butt;stroke-linejoin:miter;stroke-opacity:1"
       d="m 385.36427,-199.28211 v -0.88098 l 3.71777,2.14646 v 0.88097 z"
       id="path1774" />
    <path
       style="fill:#989898;fill-opacity:1;stroke:none;stroke-width:0.250509px;stroke-linecap:butt;stroke-linejoin:miter;stroke-opacity:1"
       d="m 389.08204,-198.01663 3.72341,-2.14972 v 0.88097 l -3.72342,2.14972 z"
       id="path1776" />
    <path
       style="fill:#cfcfcf;fill-opacity:1;stroke:none;stroke-width:0.250509px;stroke-linecap:butt;stroke-linejoin:miter;stroke-opacity:1"
       d="m 385.36427,-200.16309 3.72341,-2.1497 3.71777,2.14644 -3.72341,2.14972 z"
       id="path1778" />
    <path
       style="fill:#727070;fill-opacity:1;stroke:none;stroke-width:0.250509px;stroke-linecap:butt;stroke-linejoin:miter;stroke-opacity:1"
       d="m 391.04582,-202.56236 v -0.88097 l 3.71777,2.14645 v 0.88098 z"
       id="path1899" />
    <path
       style="fill:#989898;fill-opacity:1;stroke:none;stroke-width:0.250509px;stroke-linecap:butt;stroke-linejoin:miter;stroke-opacity:1"
       d="m 394.76359,-201.29688 3.72341,-2.14971 v 0.88096 l -3.72342,2.14972 z"
       id="path1901" />
    <path
       style="fill:#cfcfcf;fill-opacity:1;stroke:none;stroke-width:0.250509px;stroke-linecap:butt;stroke-linejoin:miter;stroke-opacity:1"
       d="m 391.04582,-203.44333 3.72341,-2.14972 3.71777,2.14646 -3.72341,2.14971 z"
       id="path1903" />
    <path
       style="fill:#727070;fill-opacity:1;stroke:none;stroke-width:0.250509px;stroke-linecap:butt;stroke-linejoin:miter;stroke-opacity:1"
       d="m 396.72736,-205.84261 v -0.88098 l 3.71777,2.14646 v 0.88098 z"
       id="path1907" />
    <path
       style="fill:#989898;fill-opacity:1;stroke:none;stroke-width:0.250509px;stroke-linecap:butt;stroke-linejoin:miter;stroke-opacity:1"
       d="m 400.44513,-204.57713 3.72341,-2.14971 v 0.88096 l -3.72341,2.14971 z"
       id="path1909" />
    <path
       style="fill:#cfcfcf;fill-opacity:1;stroke:none;stroke-width:0.250509px;stroke-linecap:butt;stroke-linejoin:miter;stroke-opacity:1"
       d="m 396.72736,-206.72359 3.72342,-2.14971 3.71776,2.14646 -3.72341,2.14971 z"
       id="path1911" />
    <path
       style="fill:#727070;fill-opacity:1;stroke:none;stroke-width:0.250509px;stroke-linecap:butt;stroke-linejoin:miter;stroke-opacity:1"
       d="m 402.40889,-209.12287 v -0.88098 l 3.71779,2.14646 v 0.88098 z"
       id="path1915" />
    <path
       style="fill:#989898;fill-opacity:1;stroke:none;stroke-width:0.250509px;stroke-linecap:butt;stroke-linejoin:miter;stroke-opacity:1"
       d="m 406.12668,-207.85739 3.72341,-2.14971 v 0.88096 l -3.72342,2.14973 z"
       id="path1917" />
    <path
       style="fill:#cfcfcf;fill-opacity:1;stroke:none;stroke-width:0.250509px;stroke-linecap:butt;stroke-linejoin:miter;stroke-opacity:1"
       d="m 402.40889,-210.00385 3.72343,-2.14971 3.71777,2.14646 -3.72341,2.14971 z"
       id="path1919" />
    <path
       style="fill:#727070;fill-opacity:1;stroke:none;stroke-width:0.250509px;stroke-linecap:butt;stroke-linejoin:miter;stroke-opacity:1"
       d="m 369.19631,-182.3747 v -0.88098 l 3.71777,2.14646 v 0.88098 z"
       id="path2003" />
    <path
       style="fill:#989898;fill-opacity:1;stroke:none;stroke-width:0.250509px;stroke-linecap:butt;stroke-linejoin:miter;stroke-opacity:1"
       d="m 372.91408,-181.10922 3.72341,-2.14971 v 0.88098 l -3.72342,2.14971 z"
       id="path2005" />
    <path
       style="fill:#cfcfcf;fill-opacity:1;stroke:none;stroke-width:0.250509px;stroke-linecap:butt;stroke-linejoin:miter;stroke-opacity:1"
       d="m 369.19631,-183.25568 3.72341,-2.14969 3.71777,2.14644 -3.72341,2.14971 z"
       id="path2007" />
    <path
       style="fill:#727070;fill-opacity:1;stroke:none;stroke-width:0.250509px;stroke-linecap:butt;stroke-linejoin:miter;stroke-opacity:1"
       d="m 375.75453,-178.5883 v -0.88097 l 3.71779,2.14645 v 0.88098 z"
       id="path2499" />
    <path
       style="fill:#989898;fill-opacity:1;stroke:none;stroke-width:0.250509px;stroke-linecap:butt;stroke-linejoin:miter;stroke-opacity:1"
       d="m 379.47232,-177.32282 3.72341,-2.14971 v 0.88096 l -3.72343,2.14973 z"
       id="path2501" />
    <path
       style="fill:#cfcfcf;fill-opacity:1;stroke:none;stroke-width:0.250509px;stroke-linecap:butt;stroke-linejoin:miter;stroke-opacity:1"
       d="m 375.75453,-179.46927 3.72343,-2.1497 3.71777,2.14644 -3.72341,2.14971 z"
       id="path2503" />
    <path
       style="fill:#727070;fill-opacity:1;stroke:none;stroke-width:0.250509px;stroke-linecap:butt;stroke-linejoin:miter;stroke-opacity:1"
       d="m 374.87786,-185.65494 v -0.88098 l 3.71778,2.14646 v 0.88098 z"
       id="path2595" />
    <path
       style="fill:#989898;fill-opacity:1;stroke:none;stroke-width:0.250509px;stroke-linecap:butt;stroke-linejoin:miter;stroke-opacity:1"
       d="m 378.59564,-184.38946 3.72341,-2.14971 v 0.88096 l -3.72343,2.14971 z"
       id="path2597" />
    <path
       style="fill:#cfcfcf;fill-opacity:1;stroke:none;stroke-width:0.250509px;stroke-linecap:butt;stroke-linejoin:miter;stroke-opacity:1"
       d="m 374.87786,-186.53592 3.72341,-2.14971 3.71778,2.14646 -3.72341,2.14971 z"
       id="path2599" />
    <path
       style="fill:#727070;fill-opacity:1;stroke:none;stroke-width:0.250509px;stroke-linecap:butt;stroke-linejoin:miter;stroke-opacity:1"
       d="m 380.5594,-188.9352 v -0.88098 l 3.71779,2.14646 v 0.88098 z"
       id="path2603" />
    <path
       style="fill:#989898;fill-opacity:1;stroke:none;stroke-width:0.250509px;stroke-linecap:butt;stroke-linejoin:miter;stroke-opacity:1"
       d="m 384.27719,-187.66972 3.72341,-2.14971 v 0.88096 l -3.72343,2.14973 z"
       id="path2605" />
    <path
       style="fill:#cfcfcf;fill-opacity:1;stroke:none;stroke-width:0.250509px;stroke-linecap:butt;stroke-linejoin:miter;stroke-opacity:1"
       d="m 380.5594,-189.81618 3.72343,-2.14971 3.71777,2.14646 -3.72341,2.14971 z"
       id="path2607" />
    <path
       style="fill:#727070;fill-opacity:1;stroke:none;stroke-width:0.250509px;stroke-linecap:butt;stroke-linejoin:miter;stroke-opacity:1"
       d="m 386.24095,-192.21546 v -0.88097 l 3.71777,2.14646 v 0.88097 z"
       id="path2611" />
    <path
       style="fill:#989898;fill-opacity:1;stroke:none;stroke-width:0.250509px;stroke-linecap:butt;stroke-linejoin:miter;stroke-opacity:1"
       d="m 389.95872,-190.94997 3.72342,-2.14972 v 0.88097 l -3.72342,2.14972 z"
       id="path2613" />
    <path
       style="fill:#cfcfcf;fill-opacity:1;stroke:none;stroke-width:0.250509px;stroke-linecap:butt;stroke-linejoin:miter;stroke-opacity:1"
       d="m 386.24095,-193.09643 3.72343,-2.14971 3.71776,2.14645 -3.72342,2.14972 z"
       id="path2615" />
    <path
       style="fill:#727070;fill-opacity:1;stroke:none;stroke-width:0.250509px;stroke-linecap:butt;stroke-linejoin:miter;stroke-opacity:1"
       d="m 391.9225,-195.49571 v -0.88098 l 3.71778,2.14646 v 0.88098 z"
       id="path2619" />
    <path
       style="fill:#989898;fill-opacity:1;stroke:none;stroke-width:0.250509px;stroke-linecap:butt;stroke-linejoin:miter;stroke-opacity:1"
       d="m 395.64028,-194.23023 3.72341,-2.14971 v 0.88096 l -3.72343,2.14973 z"
       id="path2621" />
    <path
       style="fill:#cfcfcf;fill-opacity:1;stroke:none;stroke-width:0.250509px;stroke-linecap:butt;stroke-linejoin:miter;stroke-opacity:1"
       d="m 391.9225,-196.37669 3.72341,-2.14971 3.71778,2.14646 -3.72341,2.14971 z"
       id="path2623" />
    <path
       style="fill:#727070;fill-opacity:1;stroke:none;stroke-width:0.250509px;stroke-linecap:butt;stroke-linejoin:miter;stroke-opacity:1"
       d="m 397.60406,-198.77597 v -0.88098 l 3.71777,2.14646 v 0.88098 z"
       id="path2627" />
    <path
       style="fill:#989898;fill-opacity:1;stroke:none;stroke-width:0.250509px;stroke-linecap:butt;stroke-linejoin:miter;stroke-opacity:1"
       d="m 401.32183,-197.51049 3.72341,-2.14971 v 0.88096 l -3.72343,2.14973 z"
       id="path2629" />
    <path
       style="fill:#cfcfcf;fill-opacity:1;stroke:none;stroke-width:0.250509px;stroke-linecap:butt;stroke-linejoin:miter;stroke-opacity:1"
       d="m 397.60406,-199.65695 3.72341,-2.14969 3.71777,2.14644 -3.72341,2.14971 z"
       id="path2631" />
    <path
       style="fill:#727070;fill-opacity:1;stroke:none;stroke-width:0.250509px;stroke-linecap:butt;stroke-linejoin:miter;stroke-opacity:1"
       d="m 403.28559,-202.05621 v -0.88098 l 3.71779,2.14646 v 0.88098 z"
       id="path2635" />
    <path
       style="fill:#989898;fill-opacity:1;stroke:none;stroke-width:0.250509px;stroke-linecap:butt;stroke-linejoin:miter;stroke-opacity:1"
       d="m 407.00338,-200.79073 3.72341,-2.14971 v 0.88096 l -3.72342,2.14971 z"
       id="path2637" />
    <path
       style="fill:#cfcfcf;fill-opacity:1;stroke:none;stroke-width:0.250509px;stroke-linecap:butt;stroke-linejoin:miter;stroke-opacity:1"
       d="m 403.28559,-202.93719 3.72343,-2.14971 3.71777,2.14646 -3.72341,2.14971 z"
       id="path2639" />
    <path
       style="fill:#727070;fill-opacity:1;stroke:none;stroke-width:0.250509px;stroke-linecap:butt;stroke-linejoin:miter;stroke-opacity:1"
       d="m 408.96715,-205.33647 v -0.88097 l 3.71777,2.14645 v 0.88098 z"
       id="path2643" />
    <path
       style="fill:#989898;fill-opacity:1;stroke:none;stroke-width:0.250509px;stroke-linecap:butt;stroke-linejoin:miter;stroke-opacity:1"
       d="m 412.68492,-204.07099 3.72341,-2.14971 v 0.88096 l -3.72341,2.14972 z"
       id="path2645" />
    <path
       style="fill:#cfcfcf;fill-opacity:1;stroke:none;stroke-width:0.250509px;stroke-linecap:butt;stroke-linejoin:miter;stroke-opacity:1"
       d="m 408.96715,-206.21744 3.72342,-2.14972 3.71776,2.14646 -3.72341,2.14971 z"
       id="path2647" />
    <path
       style="fill:#727070;fill-opacity:1;stroke:none;stroke-width:0.250509px;stroke-linecap:butt;stroke-linejoin:miter;stroke-opacity:1"
       d="m 381.43608,-181.86855 v -0.88098 l 3.71778,2.14646 v 0.88097 z"
       id="path2659" />
    <path
       style="fill:#989898;fill-opacity:1;stroke:none;stroke-width:0.250509px;stroke-linecap:butt;stroke-linejoin:miter;stroke-opacity:1"
       d="m 385.15386,-180.60307 3.72341,-2.14972 v 0.88098 l -3.72341,2.14971 z"
       id="path2661" />
    <path
       style="fill:#cfcfcf;fill-opacity:1;stroke:none;stroke-width:0.250509px;stroke-linecap:butt;stroke-linejoin:miter;stroke-opacity:1"
       d="m 381.43608,-182.74953 3.72343,-2.1497 3.71776,2.14644 -3.72341,2.14972 z"
       id="path2663" />
    <path
       style="fill:#727070;fill-opacity:1;stroke:none;stroke-width:0.250509px;stroke-linecap:butt;stroke-linejoin:miter;stroke-opacity:1"
       d="m 387.11764,-185.14881 v -0.88098 l 3.71777,2.14646 v 0.88098 z"
       id="path2667" />
    <path
       style="fill:#989898;fill-opacity:1;stroke:none;stroke-width:0.250509px;stroke-linecap:butt;stroke-linejoin:miter;stroke-opacity:1"
       d="m 390.83541,-183.88333 3.72341,-2.14971 v 0.88098 l -3.72343,2.14971 z"
       id="path2669" />
    <path
       style="fill:#cfcfcf;fill-opacity:1;stroke:none;stroke-width:0.250509px;stroke-linecap:butt;stroke-linejoin:miter;stroke-opacity:1"
       d="m 387.11764,-186.02979 3.72341,-2.1497 3.71777,2.14645 -3.72341,2.14971 z"
       id="path2671" />
    <path
       style="fill:#727070;fill-opacity:1;stroke:none;stroke-width:0.250509px;stroke-linecap:butt;stroke-linejoin:miter;stroke-opacity:1"
       d="m 392.79919,-188.42905 v -0.88098 l 3.71777,2.14646 v 0.88098 z"
       id="path2675" />
    <path
       style="fill:#989898;fill-opacity:1;stroke:none;stroke-width:0.250509px;stroke-linecap:butt;stroke-linejoin:miter;stroke-opacity:1"
       d="m 396.51696,-187.16357 9.40497,-5.42997 v 0.88096 l -9.40498,5.42999 z"
       id="path2677"
       sodipodi:nodetypes="ccccc" />
    <path
       style="fill:#cfcfcf;fill-opacity:1;stroke:none;stroke-width:0.250509px;stroke-linecap:butt;stroke-linejoin:miter;stroke-opacity:1"
       d="m 392.79919,-189.31003 9.40496,-5.42997 3.71778,2.14646 -9.40497,5.42997 z"
       id="path2679"
       sodipodi:nodetypes="ccccc" />
    <path
       style="fill:#727070;fill-opacity:1;stroke:none;stroke-width:0.250509px;stroke-linecap:butt;stroke-linejoin:miter;stroke-opacity:1"
       d="m 404.16228,-194.98957 v -0.88097 l 3.71777,2.14645 v 0.88098 z"
       id="path2691" />
    <path
       style="fill:#989898;fill-opacity:1;stroke:none;stroke-width:0.250509px;stroke-linecap:butt;stroke-linejoin:miter;stroke-opacity:1"
       d="m 407.88005,-193.72409 3.72341,-2.14971 v 0.88096 l -3.72341,2.14973 z"
       id="path2693" />
    <path
       style="fill:#cfcfcf;fill-opacity:1;stroke:none;stroke-width:0.250509px;stroke-linecap:butt;stroke-linejoin:miter;stroke-opacity:1"
       d="m 404.16228,-195.87054 3.72342,-2.1497 3.71776,2.14644 -3.72341,2.14971 z"
       id="path2695" />
    <path
       style="fill:#727070;fill-opacity:1;stroke:none;stroke-width:0.250509px;stroke-linecap:butt;stroke-linejoin:miter;stroke-opacity:1"
       d="m 409.84383,-198.26982 v -0.88098 l 3.71777,2.14646 v 0.88098 z"
       id="path2699" />
    <path
       style="fill:#989898;fill-opacity:1;stroke:none;stroke-width:0.250509px;stroke-linecap:butt;stroke-linejoin:miter;stroke-opacity:1"
       d="m 413.5616,-197.00434 3.72342,-2.14971 v 0.88096 l -3.72342,2.14973 z"
       id="path2701" />
    <path
       style="fill:#cfcfcf;fill-opacity:1;stroke:none;stroke-width:0.250509px;stroke-linecap:butt;stroke-linejoin:miter;stroke-opacity:1"
       d="m 409.84383,-199.1508 3.72341,-2.1497 3.71778,2.14645 -3.72342,2.14971 z"
       id="path2703" />
    <path
       style="fill:#727070;fill-opacity:1;stroke:none;stroke-width:0.250509px;stroke-linecap:butt;stroke-linejoin:miter;stroke-opacity:1"
       d="m 415.52538,-201.55008 v -0.88098 l 3.71778,2.14646 v 0.88098 z"
       id="path2707" />
    <path
       style="fill:#989898;fill-opacity:1;stroke:none;stroke-width:0.250509px;stroke-linecap:butt;stroke-linejoin:miter;stroke-opacity:1"
       d="m 419.24316,-200.2846 3.72339,-2.14971 v 0.88098 l -3.72341,2.14971 z"
       id="path2709" />
    <path
       style="fill:#cfcfcf;fill-opacity:1;stroke:none;stroke-width:0.250509px;stroke-linecap:butt;stroke-linejoin:miter;stroke-opacity:1"
       d="m 415.52538,-202.43106 3.72341,-2.14969 3.71778,2.14644 -3.72341,2.14971 z"
       id="path2711" />
    <path
       style="fill:#989898;fill-opacity:1;stroke:none;stroke-width:0.250509px;stroke-linecap:butt;stroke-linejoin:miter;stroke-opacity:1"
       d="m 450.55998,-217.64394 v 4.15367 l -11.94433,6.89607 -1.8728,-5.94333 z"
       id="path5115"
       sodipodi:nodetypes="ccccc" />
    <path
       style="fill:#717171;fill-opacity:1;stroke:none;stroke-width:0.250509px;stroke-linecap:butt;stroke-linejoin:miter;stroke-opacity:1"
       d="m 438.61565,-210.7479 -1.76959,-3.87186 -12.70456,-6.5912 -3.06292,0.33801 v 4.1537 l 17.53707,10.12503 z"
       id="path5540"
       sodipodi:nodetypes="ccccccc" />
    <path
       style="fill:#858484;fill-opacity:1;stroke:none;stroke-width:0.250509px;stroke-linecap:butt;stroke-linejoin:miter;stroke-opacity:1"
       d="m 421.07858,-220.87295 11.9443,-6.89605 17.5371,10.12505 -11.94433,6.89605 z"
       id="path5852"
       sodipodi:nodetypes="ccccc" />
    <path
       style="fill:#727070;fill-opacity:1;stroke:none;stroke-width:0.250509px;stroke-linecap:butt;stroke-linejoin:miter;stroke-opacity:1"
       d="m 429.40009,-223.79903 v -0.88098 l 3.71777,2.14646 v 0.88097 z"
       id="path3396" />
    <path
       style="fill:#989898;fill-opacity:1;stroke:none;stroke-width:0.250509px;stroke-linecap:butt;stroke-linejoin:miter;stroke-opacity:1"
       d="m 433.11786,-222.53355 3.72342,-2.14972 v 0.88098 l -3.72342,2.14971 z"
       id="path3398" />
    <path
       style="fill:#cfcfcf;fill-opacity:1;stroke:none;stroke-width:0.250509px;stroke-linecap:butt;stroke-linejoin:miter;stroke-opacity:1"
       d="m 429.40009,-224.68001 3.72343,-2.1497 3.71776,2.14644 -3.72342,2.14972 z"
       id="path3400" />
    <path
       style="fill:#727070;fill-opacity:1;stroke:none;stroke-width:0.250509px;stroke-linecap:butt;stroke-linejoin:miter;stroke-opacity:1"
       d="m 423.94829,-220.65144 v -0.88097 l 3.71779,2.14645 v 0.88098 z"
       id="path3387" />
    <path
       style="fill:#989898;fill-opacity:1;stroke:none;stroke-width:0.250509px;stroke-linecap:butt;stroke-linejoin:miter;stroke-opacity:1"
       d="m 427.66608,-219.38596 3.72341,-2.14972 v 0.88097 l -3.72343,2.14972 z"
       id="path3389" />
    <path
       style="fill:#cfcfcf;fill-opacity:1;stroke:none;stroke-width:0.250509px;stroke-linecap:butt;stroke-linejoin:miter;stroke-opacity:1"
       d="m 423.94829,-221.53241 3.72343,-2.14972 3.71777,2.14645 -3.72341,2.14972 z"
       id="path3391" />
    <path
       style="fill:none;stroke:#717171;stroke-width:1.50306;stroke-linecap:round;stroke-linejoin:miter;stroke-miterlimit:4;stroke-dasharray:none;stroke-opacity:1"
       d="m 304.64305,-258.44674 v 41.52729 c 0,0 0.12437,3.38589 1.06624,4.97954 0.94186,1.59365 3.62065,3.13838 3.62065,3.13838 10.88718,6.2858 9.54001,5.50794 14.92007,8.61411 0,0 1.86575,1.07721 1.86575,2.68052 0,1.60331 -1.86577,2.6805 -1.86577,2.6805 l -15.33671,8.85467 c 0,0 -0.99457,0.57422 -0.99457,2.19451 0,1.62028 0.99457,2.19449 0.99457,2.19449 l 20.89191,12.06195 c 0,0 2.67777,1.546 5.61835,1.55239 2.9406,0.006 5.71501,-1.55239 5.71501,-1.55239 l 19.98081,-11.53593"
       id="path6120"
       sodipodi:nodetypes="cczcczcczcczcc" />
    <path
       style="fill:#ffffff;stroke:none;stroke-width:0.250509px;stroke-linecap:butt;stroke-linejoin:miter;stroke-opacity:1"
       d="m 352.56761,-303.235 0.65115,0.37595 3.90606,-2.25518 -0.65116,-0.37594 z"
       id="path6271" />
    <path
       style="fill:#5e5e5e;fill-opacity:1;stroke:none;stroke-width:0.250509px;stroke-linecap:butt;stroke-linejoin:miter;stroke-opacity:1"
       d="m 393.61372,-262.74324 v 3.44523 l -2.05363,-1.18565 v -3.44523 z"
       id="path8232"
       sodipodi:nodetypes="ccc" />
    <path
       style="fill:#717171;fill-opacity:1;stroke:none;stroke-width:0.250509px;stroke-linecap:butt;stroke-linejoin:miter;stroke-opacity:1"
       d="m 391.56011,-263.92889 8.46628,-4.88801 2.05361,1.18565 -8.46628,4.88801 z"
       id="path8657" />
    <path
       style="fill:#cfcfcf;fill-opacity:1;stroke:none;stroke-width:0.250509px;stroke-linecap:butt;stroke-linejoin:miter;stroke-opacity:1"
       d="m 402.07999,-267.63125 v 3.44525 l -8.46627,4.88801 v -3.44525 z"
       id="path8945" />
  </g>
</svg>
