<?xml version="1.0" encoding="UTF-8" standalone="no"?>
<!-- Created with Inkscape (http://www.inkscape.org/) -->

<svg
   width="210mm"
   height="297mm"
   viewBox="0 0 210 297"
   version="1.1"
   id="svg5"
   inkscape:version="1.1.1 (3bf5ae0d25, 2021-09-20)"
   sodipodi:docname="Summer1.svg"
   xmlns:inkscape="http://www.inkscape.org/namespaces/inkscape"
   xmlns:sodipodi="http://sodipodi.sourceforge.net/DTD/sodipodi-0.dtd"
   xmlns="http://www.w3.org/2000/svg"
   xmlns:svg="http://www.w3.org/2000/svg">
  <sodipodi:namedview
     id="namedview7"
     pagecolor="#505050"
     bordercolor="#ffffff"
     borderopacity="1"
     inkscape:pageshadow="0"
     inkscape:pageopacity="0"
     inkscape:pagecheckerboard="1"
     inkscape:document-units="px"
     showgrid="false"
     showborder="false"
     inkscape:zoom="0.080473325"
     inkscape:cx="1429.045"
     inkscape:cy="1186.7286"
     inkscape:window-width="1091"
     inkscape:window-height="746"
     inkscape:window-x="273"
     inkscape:window-y="20"
     inkscape:window-maximized="1"
     inkscape:current-layer="layer1"
     inkscape:snap-nodes="true"
     inkscape:snap-global="false" />
  <defs
     id="defs2">
    <filter
       inkscape:collect="always"
       style="color-interpolation-filters:sRGB"
       id="filter5789"
       x="-0.020633016"
       y="-0.087006249"
       width="1.041266"
       height="1.1740125">
      <feGaussianBlur
         inkscape:collect="always"
         stdDeviation="5.1638615"
         id="feGaussianBlur5791" />
    </filter>
    <filter
       inkscape:collect="always"
       style="color-interpolation-filters:sRGB"
       id="filter5793"
       x="-0.021151183"
       y="-0.074180649"
       width="1.0423024"
       height="1.1483613">
      <feGaussianBlur
         inkscape:collect="always"
         stdDeviation="5.1638615"
         id="feGaussianBlur5795" />
    </filter>
    <filter
       inkscape:collect="always"
       style="color-interpolation-filters:sRGB"
       id="filter5797"
       x="-0.021026334"
       y="-0.075438621"
       width="1.0420527"
       height="1.1508772">
      <feGaussianBlur
         inkscape:collect="always"
         stdDeviation="5.1638615"
         id="feGaussianBlur5799" />
    </filter>
    <filter
       inkscape:collect="always"
       style="color-interpolation-filters:sRGB"
       id="filter5789-0"
       x="-0.020633016"
       y="-0.08700625"
       width="1.041266"
       height="1.1740125">
      <feGaussianBlur
         inkscape:collect="always"
         stdDeviation="5.1638615"
         id="feGaussianBlur5791-6" />
    </filter>
    <filter
       inkscape:collect="always"
       style="color-interpolation-filters:sRGB"
       id="filter5793-5"
       x="-0.021151183"
       y="-0.074180651"
       width="1.0423024"
       height="1.1483613">
      <feGaussianBlur
         inkscape:collect="always"
         stdDeviation="5.1638615"
         id="feGaussianBlur5795-5" />
    </filter>
    <filter
       inkscape:collect="always"
       style="color-interpolation-filters:sRGB"
       id="filter5797-8"
       x="-0.021026334"
       y="-0.075438621"
       width="1.0420527"
       height="1.1508772">
      <feGaussianBlur
         inkscape:collect="always"
         stdDeviation="5.1638615"
         id="feGaussianBlur5799-0" />
    </filter>
  </defs>
  <g
     inkscape:label="Layer 1"
     inkscape:groupmode="layer"
     id="layer1">
    <rect
       style="fill:#32b5c7;stroke-width:0.240126;stroke-linecap:round;stroke-linejoin:round;paint-order:stroke fill markers;fill-opacity:1"
       id="rect846"
       width="508"
       height="285.75"
       x="0"
       y="0"
       rx="0"
       inkscape:export-filename="/home/franci/.wallpapers/SummerWallpapers/Summer2.png"
       inkscape:export-xdpi="96"
       inkscape:export-ydpi="96" />
    <path
       style="fill:#4c7518;fill-opacity:1;stroke:none;stroke-width:0.264583px;stroke-linecap:butt;stroke-linejoin:miter;stroke-opacity:1;filter:url(#filter5789);opacity:0.25"
       d="m -22.05298,175.90848 1.702604,-76.496063 c 0,0 -5.658424,-62.169083 133.751066,-12.927879 C 252.81019,135.72574 312.70781,14.860234 433.3745,35.96813 554.0412,57.076025 578.59924,102.9347 578.59924,102.9347 l -18.12099,46.34485 -345.27964,24.1923 z"
       id="path3239" />
    <path
       style="fill:#7cbd27;stroke:none;stroke-width:0.264583px;stroke-linecap:butt;stroke-linejoin:miter;stroke-opacity:1;fill-opacity:1"
       d="m -22.05298,179.59539 1.702604,-76.49606 c 0,0 -5.658424,-62.169083 133.751066,-12.927879 139.4095,49.241199 199.30712,-71.624304 319.97381,-50.516408 120.6667,21.107895 145.22474,66.966567 145.22474,66.966567 l -18.12099,46.34485 -345.27964,24.1923 z"
       id="path1115" />
    <path
       style="fill:#7a6008;fill-opacity:1;stroke:none;stroke-width:0.264583px;stroke-linecap:butt;stroke-linejoin:miter;stroke-opacity:1;filter:url(#filter5793);opacity:0.25"
       d="m -32.113471,249.02445 0.471948,-119.74333 c 0,0 187.960723,20.16902 280.135343,-15.69786 152.84306,-59.474116 206.71259,25.98316 292.73927,2.7627 l 12.59073,108.01238 -210.40193,29.00506 -327.435026,5.81838 z"
       id="path3219"
       sodipodi:nodetypes="ccsccccc" />
    <path
       style="fill:#ecbd10;fill-opacity:1;stroke:none;stroke-width:0.264583px;stroke-linecap:butt;stroke-linejoin:miter;stroke-opacity:1"
       d="m -32.113471,252.95951 0.471948,-119.74333 c 0,0 187.960723,20.16902 280.135343,-15.69786 152.84306,-59.474116 206.71259,25.98316 292.73927,2.7627 l 12.59073,108.01238 -210.40193,29.00506 -327.435026,5.81838 z"
       id="path1047"
       sodipodi:nodetypes="ccsccccc" />
    <path
       style="fill:#741f28;fill-opacity:1;stroke:none;stroke-width:0.264583px;stroke-linecap:butt;stroke-linejoin:miter;stroke-opacity:1;filter:url(#filter5797);opacity:0.25"
       d="m -50.853101,256.125 c 0,0 27.441948,-80.67416 246.179011,-54.64986 218.73705,26.0243 343.23743,-43.72308 343.23743,-43.72308 l -1.85685,164.28279 -579.793303,-14.0829 z"
       id="path2070" />
    <path
       style="fill:#cf3746;stroke:none;stroke-width:0.264583px;stroke-linecap:butt;stroke-linejoin:miter;stroke-opacity:1;fill-opacity:1"
       d="m -50.853101,260.32494 c 0,0 27.441948,-80.67416 246.179011,-54.64986 218.73705,26.0243 343.23743,-43.72308 343.23743,-43.72308 l -1.85685,164.28279 -579.793303,-14.0829 z"
       id="path979" />
    <rect
       style="fill:#292a2b;fill-opacity:1;stroke-width:0.240126;stroke-linecap:round;stroke-linejoin:round;paint-order:stroke fill markers"
       id="rect846-4"
       width="508"
       height="285.75"
       x="328.26685"
       y="-514.05078"
       rx="0"
       inkscape:export-filename="/home/franci/.wallpapers/SummerWallpapers/Summer2.png"
       inkscape:export-xdpi="96"
       inkscape:export-ydpi="96" />
    <path
       style="opacity:0.25;fill:#572769;fill-opacity:1;stroke:none;stroke-width:0.264583px;stroke-linecap:butt;stroke-linejoin:miter;stroke-opacity:1;filter:url(#filter5789-0)"
       d="m 306.21389,-338.14229 1.7026,-76.49606 c 0,0 -5.65842,-62.16908 133.75107,-12.92788 139.4095,49.2412 199.30712,-71.6243 319.97381,-50.51641 120.6667,21.1079 145.22474,66.96657 145.22474,66.96657 l -18.12099,46.34485 -345.27964,24.1923 z"
       id="path3239-0" />
    <path
       style="fill:#ad4ed2;fill-opacity:1;stroke:none;stroke-width:0.264583px;stroke-linecap:butt;stroke-linejoin:miter;stroke-opacity:1"
       d="m 306.21389,-334.45538 1.7026,-76.49606 c 0,0 -5.65842,-62.16908 133.75107,-12.92788 139.4095,49.2412 199.30712,-71.6243 319.97381,-50.5164 120.6667,21.10789 145.22474,66.96656 145.22474,66.96656 l -18.12099,46.34485 -345.27964,24.1923 z"
       id="path1115-8" />
    <path
       style="opacity:0.25;fill:#184a6f;fill-opacity:1;stroke:none;stroke-width:0.264583px;stroke-linecap:butt;stroke-linejoin:miter;stroke-opacity:1;filter:url(#filter5793-5)"
       d="m 296.1534,-265.02632 0.47195,-119.74333 c 0,0 187.96072,20.16902 280.13534,-15.69786 152.84306,-59.47411 206.71259,25.98316 292.73927,2.7627 l 12.59073,108.01238 -210.40193,29.00506 -327.43503,5.81838 z"
       id="path3219-2"
       sodipodi:nodetypes="ccsccccc" />
    <path
       style="fill:#277ab6;fill-opacity:1;stroke:none;stroke-width:0.264583px;stroke-linecap:butt;stroke-linejoin:miter;stroke-opacity:1"
       d="m 296.1534,-261.09126 0.47195,-119.74333 c 0,0 187.96072,20.16902 280.13534,-15.69786 152.84306,-59.47411 206.71259,25.98316 292.73927,2.7627 l 12.59073,108.01238 -210.40193,29.00506 -327.43503,5.81838 z"
       id="path1047-9"
       sodipodi:nodetypes="ccsccccc" />
    <path
       style="opacity:0.25;fill:#312921;fill-opacity:1;stroke:none;stroke-width:0.264583px;stroke-linecap:butt;stroke-linejoin:miter;stroke-opacity:1;filter:url(#filter5797-8)"
       d="m 277.41377,-257.92577 c 0,0 27.44195,-80.67416 246.17901,-54.64986 218.73705,26.0243 343.23743,-43.72308 343.23743,-43.72308 l -1.85685,164.28279 -579.7933,-14.0829 z"
       id="path2070-9" />
    <path
       style="fill:#776550;fill-opacity:1;stroke:none;stroke-width:0.264583px;stroke-linecap:butt;stroke-linejoin:miter;stroke-opacity:1"
       d="m 277.41377,-253.72583 c 0,0 27.44195,-80.67416 246.17901,-54.64986 218.73705,26.0243 343.23743,-43.72308 343.23743,-43.72308 l -1.85685,164.28279 -579.7933,-14.0829 z"
       id="path979-9" />
  </g>
</svg>
